<svg width="20" height="18" viewBox="0 0 20 18" fill="none" xmlns="http://www.w3.org/2000/svg">
<path d="M17.8415 5.00252C17.8415 5.18395 17.8415 5.36538 17.8415 5.52089C17.8415 10.8861 13.8915 17.0807 6.69147 17.0807C4.46647 17.0807 2.41647 16.4068 0.666473 15.2663C0.966473 15.2923 1.29147 15.3182 1.59147 15.3182C3.41647 15.3182 5.11647 14.6702 6.46647 13.5816C4.74147 13.5557 3.29147 12.3634 2.81647 10.7565C3.06647 10.8083 3.29147 10.8342 3.56647 10.8342C3.91647 10.8342 4.26647 10.7824 4.59147 10.6787C2.79147 10.3159 1.44147 8.68298 1.44147 6.71316C1.44147 6.68724 1.44147 6.68724 1.44147 6.66132C1.96647 6.97234 2.56647 7.15377 3.21647 7.17969C2.16647 6.45397 1.46647 5.20987 1.46647 3.78433C1.46647 3.03269 1.66647 2.33288 1.99147 1.73675C3.91647 4.19903 6.81647 5.806 10.0665 5.98743C9.99147 5.70232 9.96647 5.36538 9.96647 5.05435C9.96647 2.79942 11.7165 0.985107 13.8915 0.985107C15.0165 0.985107 16.0415 1.47756 16.7415 2.25513C17.6415 2.0737 18.4665 1.73675 19.2415 1.27021C18.9415 2.22921 18.3165 3.00677 17.5165 3.52515C18.3165 3.42147 19.0665 3.21412 19.7665 2.87718C19.2665 3.70658 18.6165 4.4323 17.8415 5.00252Z" fill="#121212" fill-opacity="0.6"/>
</svg>
