<svg width="20" height="21" viewBox="0 0 20 21" fill="none" xmlns="http://www.w3.org/2000/svg">
<path d="M6.66757 10.588C6.66757 8.67943 8.15949 7.13185 10.0004 7.13185C11.8412 7.13185 13.334 8.67943 13.334 10.588C13.334 12.4965 11.8412 14.0441 10.0004 14.0441C8.15949 14.0441 6.66757 12.4965 6.66757 10.588ZM4.86549 10.588C4.86549 13.5282 7.16437 15.9116 10.0004 15.9116C12.8364 15.9116 15.1352 13.5282 15.1352 10.588C15.1352 7.64774 12.8364 5.26438 10.0004 5.26438C7.16437 5.26438 4.86549 7.64774 4.86549 10.588ZM14.1385 5.05329C14.1384 5.29935 14.2087 5.53992 14.3405 5.74456C14.4723 5.94921 14.6596 6.10875 14.8789 6.203C15.0981 6.29725 15.3394 6.32199 15.5722 6.27408C15.805 6.22618 16.0188 6.10778 16.1867 5.93386C16.3546 5.75993 16.469 5.5383 16.5154 5.29699C16.5618 5.05568 16.5381 4.80552 16.4474 4.57815C16.3566 4.35079 16.2029 4.15642 16.0056 4.01964C15.8083 3.88285 15.5763 3.80979 15.339 3.80969H15.3385C15.0204 3.80984 14.7153 3.9409 14.4903 4.17407C14.2653 4.40725 14.1388 4.72347 14.1385 5.05329V5.05329ZM5.96037 19.0269C4.98541 18.9808 4.45549 18.8125 4.10333 18.6702C3.63645 18.4818 3.30333 18.2574 2.95309 17.8947C2.60285 17.5321 2.38605 17.1871 2.20509 16.7031C2.06781 16.3381 1.90541 15.7886 1.86109 14.7778C1.81261 13.6849 1.80293 13.3567 1.80293 10.5881C1.80293 7.81943 1.81341 7.49206 1.86109 6.39833C1.90549 5.38754 2.06909 4.83906 2.20509 4.47304C2.38685 3.98901 2.60333 3.64364 2.95309 3.28053C3.30285 2.91742 3.63565 2.69265 4.10333 2.50504C4.45533 2.36272 4.98541 2.19435 5.96037 2.1484C7.01445 2.09814 7.33109 2.0881 10.0004 2.0881C12.6696 2.0881 12.9866 2.09897 14.0416 2.1484C15.0165 2.19443 15.5456 2.36405 15.8986 2.50504C16.3655 2.69265 16.6986 2.91792 17.0488 3.28053C17.3991 3.64315 17.6151 3.98901 17.7968 4.47304C17.9341 4.83798 18.0965 5.38754 18.1408 6.39833C18.1893 7.49206 18.199 7.81943 18.199 10.5881C18.199 13.3567 18.1893 13.684 18.1408 14.7778C18.0964 15.7886 17.9332 16.338 17.7968 16.7031C17.6151 17.1871 17.3986 17.5325 17.0488 17.8947C16.6991 18.257 16.3655 18.4818 15.8986 18.6702C15.5466 18.8126 15.0165 18.9809 14.0416 19.0269C12.9875 19.0771 12.6708 19.0872 10.0004 19.0872C7.32989 19.0872 7.01413 19.0771 5.96037 19.0269V19.0269ZM5.87757 0.283245C4.81301 0.333506 4.08557 0.50851 3.45029 0.764795C2.79237 1.02946 2.23541 1.38452 1.67885 1.96062C1.12229 2.53673 0.780686 3.11507 0.525406 3.79717C0.278206 4.45621 0.109406 5.20997 0.0609262 6.31365C0.0116462 7.41908 0.000366211 7.77248 0.000366211 10.588C0.000366211 13.4035 0.0116462 13.7569 0.0609262 14.8623C0.109406 15.9661 0.278206 16.7197 0.525406 17.3788C0.780686 18.0605 1.12237 18.6395 1.67885 19.2153C2.23533 19.7912 2.79237 20.1457 3.45029 20.4111C4.08677 20.6674 4.81301 20.8424 5.87757 20.8927C6.94437 20.943 7.28469 20.9555 10.0004 20.9555C12.716 20.9555 13.0569 20.9438 14.1232 20.8927C15.1878 20.8424 15.9148 20.6674 16.5504 20.4111C17.208 20.1457 17.7653 19.7914 18.3219 19.2153C18.8784 18.6392 19.2193 18.0605 19.4753 17.3788C19.7225 16.7197 19.8921 15.966 19.9398 14.8623C19.9883 13.756 19.9996 13.4035 19.9996 10.588C19.9996 7.77248 19.9883 7.41908 19.9398 6.31365C19.8913 5.20988 19.7225 4.45579 19.4753 3.79717C19.2193 3.11548 18.8776 2.53764 18.3219 1.96062C17.7662 1.38361 17.208 1.02946 16.5512 0.764795C15.9148 0.50851 15.1877 0.332677 14.124 0.283245C13.0577 0.232983 12.7168 0.220459 10.0012 0.220459C7.28549 0.220459 6.94437 0.232154 5.87757 0.283245Z" fill="#121212" fill-opacity="0.6"/>
</svg>
