<svg width="30" height="30" viewBox="0 0 30 30" fill="none" xmlns="http://www.w3.org/2000/svg">
<path fill-rule="evenodd" clip-rule="evenodd" d="M17.9599 1.95952C18.8802 1.03917 20.1795 0.666626 21.667 0.666626H24.3337C25.8211 0.666626 27.1204 1.03917 28.0408 1.95952C28.9611 2.87987 29.3337 4.17915 29.3337 5.66663V8.33329C29.3337 9.82077 28.9611 11.1201 28.0408 12.0404C27.1204 12.9607 25.8211 13.3333 24.3337 13.3333H21.667C20.1795 13.3333 18.8802 12.9607 17.9599 12.0404C17.0395 11.1201 16.667 9.82077 16.667 8.33329V5.66663C16.667 4.17915 17.0395 2.87987 17.9599 1.95952ZM19.3741 3.37373C18.9611 3.78672 18.667 4.48744 18.667 5.66663V8.33329C18.667 9.51248 18.9611 10.2132 19.3741 10.6262C19.7871 11.0392 20.4878 11.3333 21.667 11.3333H24.3337C25.5128 11.3333 26.2136 11.0392 26.6266 10.6262C27.0395 10.2132 27.3337 9.51248 27.3337 8.33329V5.66663C27.3337 4.48744 27.0395 3.78672 26.6266 3.37373C26.2136 2.96075 25.5128 2.66663 24.3337 2.66663H21.667C20.4878 2.66663 19.7871 2.96075 19.3741 3.37373Z" fill="#A4A4A4"/>
<path fill-rule="evenodd" clip-rule="evenodd" d="M1.95989 17.9595C2.88023 17.0392 4.17951 16.6666 5.66699 16.6666H8.33366C9.82114 16.6666 11.1204 17.0392 12.0408 17.9595C12.9611 18.8799 13.3337 20.1791 13.3337 21.6666V24.3333C13.3337 25.8208 12.9611 27.1201 12.0408 28.0404C11.1204 28.9607 9.82114 29.3333 8.33366 29.3333H5.66699C4.17951 29.3333 2.88023 28.9607 1.95989 28.0404C1.03954 27.1201 0.666992 25.8208 0.666992 24.3333V21.6666C0.666992 20.1791 1.03954 18.8799 1.95989 17.9595ZM3.3741 19.3737C2.96111 19.7867 2.66699 20.4874 2.66699 21.6666V24.3333C2.66699 25.5125 2.96111 26.2132 3.3741 26.6262C3.78709 27.0392 4.4878 27.3333 5.66699 27.3333H8.33366C9.51285 27.3333 10.2136 27.0392 10.6266 26.6262C11.0395 26.2132 11.3337 25.5125 11.3337 24.3333V21.6666C11.3337 20.4874 11.0395 19.7867 10.6266 19.3737C10.2136 18.9607 9.51285 18.6666 8.33366 18.6666H5.66699C4.4878 18.6666 3.78709 18.9607 3.3741 19.3737Z" fill="#A4A4A4"/>
<path fill-rule="evenodd" clip-rule="evenodd" d="M7.00033 2.66663C4.60709 2.66663 2.66699 4.60673 2.66699 6.99996C2.66699 9.39319 4.60709 11.3333 7.00033 11.3333C9.39356 11.3333 11.3337 9.39319 11.3337 6.99996C11.3337 4.60673 9.39356 2.66663 7.00033 2.66663ZM0.666992 6.99996C0.666992 3.50216 3.50252 0.666626 7.00033 0.666626C10.4981 0.666626 13.3337 3.50216 13.3337 6.99996C13.3337 10.4978 10.4981 13.3333 7.00033 13.3333C3.50252 13.3333 0.666992 10.4978 0.666992 6.99996Z" fill="#A4A4A4"/>
<path fill-rule="evenodd" clip-rule="evenodd" d="M23.0003 18.6666C20.6071 18.6666 18.667 20.6067 18.667 23C18.667 25.3932 20.6071 27.3333 23.0003 27.3333C25.3936 27.3333 27.3337 25.3932 27.3337 23C27.3337 20.6067 25.3936 18.6666 23.0003 18.6666ZM16.667 23C16.667 19.5022 19.5025 16.6666 23.0003 16.6666C26.4981 16.6666 29.3337 19.5022 29.3337 23C29.3337 26.4978 26.4981 29.3333 23.0003 29.3333C19.5025 29.3333 16.667 26.4978 16.667 23Z" fill="#A4A4A4"/>
</svg>
