<svg width="32" height="32" viewBox="0 0 32 32" fill="none" xmlns="http://www.w3.org/2000/svg">
<path fill-rule="evenodd" clip-rule="evenodd" d="M2.47338 4.91308C3.54959 2.98225 5.6233 1.66663 8.00018 1.66663H20.0002C20.5525 1.66663 21.0002 2.11434 21.0002 2.66663V16C21.0002 18.0189 19.3525 19.6666 17.3335 19.6666H16.0002C15.4479 19.6666 15.0002 19.2189 15.0002 18.6666C15.0002 18.1143 15.4479 17.6666 16.0002 17.6666H17.3335C18.2479 17.6666 19.0002 16.9143 19.0002 16V3.66663H8.00018C6.37706 3.66663 4.95747 4.56431 4.22034 5.8868C3.95146 6.36921 3.34241 6.54231 2.86 6.27342C2.37759 6.00454 2.2045 5.39549 2.47338 4.91308Z" fill="#A4A4A4"/>
<path fill-rule="evenodd" clip-rule="evenodd" d="M19.0003 6.66663C19.0003 6.11434 19.448 5.66663 20.0003 5.66663H22.4537C23.7788 5.66663 24.984 6.38395 25.6385 7.51117L25.6418 7.51685L25.6418 7.51686L27.9217 11.5035C28.0987 11.813 28.0975 12.1933 27.9186 12.5017C27.7397 12.8101 27.4102 13 27.0536 13H25.3337C25.1526 13 25.0003 13.1522 25.0003 13.3333V17.3333C25.0003 17.5143 25.1526 17.6666 25.3337 17.6666H29.3337C29.8859 17.6666 30.3337 18.1143 30.3337 18.6666V22.6666C30.3337 25.4322 28.0993 27.6666 25.3337 27.6666H24.0003C23.448 27.6666 23.0003 27.2189 23.0003 26.6666C23.0003 25.7522 22.248 25 21.3337 25C20.4193 25 19.667 25.7522 19.667 26.6666C19.667 27.2189 19.2193 27.6666 18.667 27.6666H13.3337C12.7814 27.6666 12.3337 27.2189 12.3337 26.6666C12.3337 25.7522 11.5814 25 10.667 25C9.75261 25 9.00033 25.7522 9.00033 26.6666C9.00033 27.2189 8.55261 27.6666 8.00033 27.6666H6.66699C3.90137 27.6666 1.66699 25.4322 1.66699 22.6666C1.66699 22.1143 2.11471 21.6666 2.66699 21.6666C3.21928 21.6666 3.66699 22.1143 3.66699 22.6666C3.66699 24.3277 5.00594 25.6666 6.66699 25.6666H7.1394C7.57668 24.1308 8.99445 23 10.667 23C12.3395 23 13.7573 24.1308 14.1946 25.6666H17.8061C18.2434 24.1308 19.6611 23 21.3337 23C23.0062 23 24.424 24.1308 24.8612 25.6666H25.3337C26.9947 25.6666 28.3337 24.3277 28.3337 22.6666V19.6666H25.3337C24.048 19.6666 23.0003 18.6189 23.0003 17.3333V13.3333C23.0003 12.049 24.0459 11.0021 25.3298 11L23.9089 8.51544C23.9084 8.51461 23.9079 8.51378 23.9074 8.51295C23.6017 7.98831 23.0476 7.66663 22.4537 7.66663H21.0003V16C21.0003 18.0189 19.3526 19.6666 17.3337 19.6666H16.0003C15.448 19.6666 15.0003 19.2189 15.0003 18.6666C15.0003 18.1143 15.448 17.6666 16.0003 17.6666H17.3337C18.248 17.6666 19.0003 16.9143 19.0003 16V6.66663Z" fill="#A4A4A4"/>
<path fill-rule="evenodd" clip-rule="evenodd" d="M10.6667 25C9.74619 25 9 25.7462 9 26.6667C9 27.5871 9.74619 28.3333 10.6667 28.3333C11.5871 28.3333 12.3333 27.5871 12.3333 26.6667C12.3333 25.7462 11.5871 25 10.6667 25ZM7 26.6667C7 24.6416 8.64162 23 10.6667 23C12.6917 23 14.3333 24.6416 14.3333 26.6667C14.3333 28.6917 12.6917 30.3333 10.6667 30.3333C8.64162 30.3333 7 28.6917 7 26.6667Z" fill="#A4A4A4"/>
<path fill-rule="evenodd" clip-rule="evenodd" d="M21.3337 24.9999C20.4132 24.9999 19.667 25.7461 19.667 26.6666C19.667 27.5871 20.4132 28.3333 21.3337 28.3333C22.2541 28.3333 23.0003 27.5871 23.0003 26.6666C23.0003 25.7461 22.2541 24.9999 21.3337 24.9999ZM17.667 26.6666C17.667 24.6416 19.3086 22.9999 21.3337 22.9999C23.3587 22.9999 25.0003 24.6416 25.0003 26.6666C25.0003 28.6917 23.3587 30.3333 21.3337 30.3333C19.3086 30.3333 17.667 28.6917 17.667 26.6666Z" fill="#A4A4A4"/>
<path fill-rule="evenodd" clip-rule="evenodd" d="M25.3333 13C25.1523 13 25 13.1523 25 13.3333V17.3333C25 17.5144 25.1523 17.6667 25.3333 17.6667H28.3333V16.265L26.4723 13H25.3333ZM23 13.3333C23 12.0477 24.0477 11 25.3333 11H27.0533C27.4125 11 27.7442 11.1927 27.9221 11.5048L30.2021 15.5048C30.2881 15.6557 30.3333 15.8263 30.3333 16V18.6667C30.3333 19.219 29.8856 19.6667 29.3333 19.6667H25.3333C24.0477 19.6667 23 18.619 23 17.3333V13.3333Z" fill="#A4A4A4"/>
<path fill-rule="evenodd" clip-rule="evenodd" d="M1.66699 10.6666C1.66699 10.1143 2.11471 9.66663 2.66699 9.66663H10.667C11.2193 9.66663 11.667 10.1143 11.667 10.6666C11.667 11.2189 11.2193 11.6666 10.667 11.6666H2.66699C2.11471 11.6666 1.66699 11.2189 1.66699 10.6666Z" fill="#A4A4A4"/>
<path fill-rule="evenodd" clip-rule="evenodd" d="M1.66699 14.6666C1.66699 14.1143 2.11471 13.6666 2.66699 13.6666H8.00033C8.55261 13.6666 9.00033 14.1143 9.00033 14.6666C9.00033 15.2189 8.55261 15.6666 8.00033 15.6666H2.66699C2.11471 15.6666 1.66699 15.2189 1.66699 14.6666Z" fill="#A4A4A4"/>
<path fill-rule="evenodd" clip-rule="evenodd" d="M1.66699 18.6666C1.66699 18.1143 2.11471 17.6666 2.66699 17.6666H5.33366C5.88594 17.6666 6.33366 18.1143 6.33366 18.6666C6.33366 19.2189 5.88594 19.6666 5.33366 19.6666H2.66699C2.11471 19.6666 1.66699 19.2189 1.66699 18.6666Z" fill="#A4A4A4"/>
</svg>
