<svg width="32" height="32" viewBox="0 0 32 32" fill="none" xmlns="http://www.w3.org/2000/svg">
<path fill-rule="evenodd" clip-rule="evenodd" d="M8.34633 11.3334C6.13862 11.3334 4.33301 13.139 4.33301 15.3467V19.4477C5.05655 19.1594 5.84415 19 6.66634 19C10.1653 19 12.9997 21.8344 12.9997 25.3334C12.9997 26.4102 12.7261 27.4383 12.2355 28.3334H23.653C25.8607 28.3334 27.6663 26.5277 27.6663 24.32V23.7334H26.133C24.2536 23.7334 22.4294 22.3591 22.257 20.329C22.1493 19.1794 22.587 18.1054 23.3454 17.36C24.0276 16.6642 24.9628 16.2667 25.973 16.2667H27.6663V15.3467C27.6663 13.139 25.8607 11.3334 23.653 11.3334H8.34633ZM2.33301 15.3467C2.33301 12.0344 5.03404 9.33337 8.34633 9.33337H23.653C26.9653 9.33337 29.6663 12.0344 29.6663 15.3467V17.2667C29.6663 17.819 29.2186 18.2667 28.6663 18.2667H25.973C25.4943 18.2667 25.0732 18.4523 24.7695 18.7643L24.7515 18.7823C24.3968 19.1286 24.1986 19.6216 24.2485 20.1452L24.2496 20.157L24.2496 20.157C24.3201 21.0036 25.1342 21.7334 26.133 21.7334H28.6663C29.2186 21.7334 29.6663 22.1811 29.6663 22.7334V24.32C29.6663 27.6323 26.9653 30.3334 23.653 30.3334H10.173C9.75257 30.3334 9.37704 30.0704 9.23328 29.6753C9.08953 29.2802 9.20826 28.8374 9.5304 28.5672C9.85433 28.2955 10.1399 27.9579 10.3626 27.5762L10.3752 27.5551C10.7723 26.9111 10.9997 26.1459 10.9997 25.3334C10.9997 22.939 9.06072 21 6.66634 21C5.65096 21 4.70843 21.3558 3.95632 21.9554C3.65597 22.1948 3.24505 22.241 2.89902 22.0743C2.55299 21.9076 2.33301 21.5575 2.33301 21.1734V15.3467Z" fill="#A4A4A4"/>
<path fill-rule="evenodd" clip-rule="evenodd" d="M18.7997 5.26675C18.7997 4.19006 17.7236 3.45088 16.7274 3.82847L6.14023 7.82867C5.05121 8.24094 4.33301 9.28069 4.33301 10.4534V16.5467C4.33301 17.099 3.88529 17.5467 3.33301 17.5467C2.78072 17.5467 2.33301 17.099 2.33301 16.5467V10.4534C2.33301 8.45302 3.56172 6.66594 5.43244 5.9581L16.0186 1.9583C18.3291 1.08255 20.7997 2.79678 20.7997 5.26675V10.3334C20.7997 10.8857 20.352 11.3334 19.7997 11.3334C19.2474 11.3334 18.7997 10.8857 18.7997 10.3334V5.26675Z" fill="#A4A4A4"/>
<path fill-rule="evenodd" clip-rule="evenodd" d="M25.9714 18.267C25.4927 18.267 25.0716 18.4526 24.7679 18.7646L24.7499 18.7825C24.3952 19.1288 24.197 19.6218 24.2469 20.1455L24.248 20.1572L24.248 20.1572C24.3185 21.0039 25.1326 21.7336 26.1314 21.7336H28.7218C28.9373 21.7197 29.0781 21.5512 29.0781 21.3737V18.6269C29.0781 18.4494 28.9373 18.2809 28.7218 18.267H25.9714ZM23.3438 17.3602C24.026 16.6645 24.9612 16.267 25.9714 16.267H28.7447C28.7566 16.267 28.7685 16.2672 28.7804 16.2676C30.0511 16.313 31.0781 17.3412 31.0781 18.6269V21.3737C31.0781 22.6594 30.0511 23.6876 28.7804 23.733C28.7685 23.7334 28.7566 23.7336 28.7447 23.7336H26.1314C24.252 23.7336 22.4278 22.3593 22.2554 20.3292C22.1477 19.1796 22.5854 18.1057 23.3438 17.3602Z" fill="#A4A4A4"/>
<path fill-rule="evenodd" clip-rule="evenodd" d="M8.33301 16.0001C8.33301 15.4478 8.78072 15.0001 9.33301 15.0001H18.6663C19.2186 15.0001 19.6663 15.4478 19.6663 16.0001C19.6663 16.5523 19.2186 17.0001 18.6663 17.0001H9.33301C8.78072 17.0001 8.33301 16.5523 8.33301 16.0001Z" fill="#A4A4A4"/>
<path fill-rule="evenodd" clip-rule="evenodd" d="M6.66634 21.0001C5.65096 21.0001 4.70843 21.3559 3.95632 21.9554L3.95458 21.9568L3.95458 21.9568C2.96101 22.7451 2.33301 23.9661 2.33301 25.3334C2.33301 26.1459 2.56036 26.9111 2.95751 27.5552L2.9659 27.5688L2.96579 27.5688C3.7122 28.8237 5.08517 29.6667 6.66634 29.6667C7.76326 29.6667 8.75232 29.2667 9.50405 28.5901C9.5127 28.5823 9.52149 28.5747 9.5304 28.5672C9.85433 28.2955 10.1399 27.9579 10.3626 27.5762L10.3752 27.5552C10.7723 26.9111 10.9997 26.1459 10.9997 25.3334C10.9997 22.939 9.06072 21.0001 6.66634 21.0001ZM2.71056 20.3907C3.79832 19.524 5.17545 19.0001 6.66634 19.0001C10.1653 19.0001 12.9997 21.8344 12.9997 25.3334C12.9997 26.5166 12.6694 27.6408 12.0839 28.5946C11.7505 29.1633 11.323 29.6713 10.8291 30.0883C9.71575 31.0847 8.2566 31.6667 6.66634 31.6667C4.35705 31.6667 2.34549 30.4329 1.25098 28.5981C0.66408 27.6436 0.333008 26.5181 0.333008 25.3334C0.333008 23.3411 1.25131 21.549 2.71056 20.3907Z" fill="#A4A4A4"/>
<path fill-rule="evenodd" clip-rule="evenodd" d="M9.48203 23.3471C9.85703 23.7525 9.83233 24.3852 9.42687 24.7602L6.58687 27.3868C6.19255 27.7515 5.58056 27.7396 5.20077 27.3598L3.88078 26.0398C3.49026 25.6493 3.49026 25.0161 3.88078 24.6256C4.27131 24.2351 4.90447 24.2351 5.295 24.6256L5.93494 25.2655L8.06889 23.2919C8.47435 22.9169 9.10704 22.9416 9.48203 23.3471Z" fill="#A4A4A4"/>
</svg>
