<svg width="27" height="33" viewBox="0 0 27 33" fill="none" xmlns="http://www.w3.org/2000/svg">
<path d="M22.6957 17.8876C22.7276 15.409 24.0587 13.0637 26.1704 11.7655C24.8382 9.86298 22.6069 8.65672 20.2855 8.58409C17.8095 8.3242 15.4092 10.0657 14.1475 10.0657C12.8613 10.0657 10.9187 8.6099 8.82687 8.65294C6.10021 8.74103 3.55828 10.2913 2.2317 12.6751C-0.619915 17.6122 1.50713 24.8681 4.23874 28.8589C5.60543 30.8131 7.20269 32.996 9.29267 32.9186C11.3378 32.8338 12.1017 31.6145 14.5704 31.6145C17.0162 31.6145 17.7328 32.9186 19.8652 32.8694C22.0597 32.8337 23.4424 30.9065 24.7612 28.9338C25.7431 27.5414 26.4987 26.0025 27 24.374C24.421 23.2832 22.6987 20.6878 22.6957 17.8876Z" fill="#B2B2B2"/>
<path d="M18.6679 5.95954C19.8645 4.52311 20.454 2.67681 20.3113 0.812744C18.4832 1.00475 16.7945 1.87846 15.5818 3.25978C14.3959 4.60941 13.7788 6.42322 13.8954 8.21604C15.7242 8.23487 17.522 7.38484 18.6679 5.95954Z" fill="#B2B2B2"/>
</svg>
