<svg width="281" height="233" viewBox="0 0 281 233" fill="none" xmlns="http://www.w3.org/2000/svg">
<path d="M78.4209 215.37C72.9632 214.841 68.6575 213.31 65.5039 210.777C62.4665 208.255 60.4256 205.127 59.3812 201.392C58.3368 197.657 58.0229 193.641 58.4396 189.345C59.1715 181.797 61.576 174.528 65.653 167.539C69.8348 160.678 74.3087 154.43 79.0747 148.797C86.0962 140.453 92.9714 133.618 99.7001 128.292C106.556 122.862 113.751 118.168 121.285 114.21C121.222 112.446 121.196 109.689 121.208 105.939C121.22 102.189 121.15 98.0799 120.997 93.611C120.972 89.0372 120.935 84.5795 120.887 80.238C120.84 75.8964 120.788 72.1991 120.732 69.1462C119.51 72.0753 118.156 75.1673 116.668 78.4222C115.18 81.6771 113.617 85.1006 111.98 88.6926C108.461 95.9703 104.616 102.982 100.446 109.728C96.2749 116.473 91.7711 122.425 86.9341 127.582C82.2132 132.75 77.1928 136.776 71.873 139.659C66.6806 142.438 61.3555 143.563 55.8978 143.033L54.5043 142.898C48.9643 142.009 45.4268 139.205 43.8919 134.485C42.357 129.764 41.8823 124.385 42.4679 118.347C42.9296 113.586 43.7453 108.8 44.9149 103.991C46.2008 99.1926 47.5108 94.7483 48.8452 90.658C50.1796 86.5677 51.186 83.4419 51.8644 81.2806C52.2093 80.1419 52.8933 77.9226 53.9166 74.6226C54.9512 71.2065 56.1058 67.1574 57.3803 62.4752C58.771 57.8043 60.01 52.8842 61.0973 47.7151C62.1959 42.4298 62.9705 37.4647 63.4209 32.8198C63.9839 27.0137 63.8182 22.0746 62.9237 18.0026C62.0293 13.9306 59.8402 11.7257 56.3566 11.3879C52.6407 11.0275 49.063 12.263 45.6237 15.0942C42.1956 17.8093 38.9621 21.5397 35.9232 26.2852C33.0117 30.9258 30.3455 36.0591 27.9245 41.685C25.6196 47.3222 23.7268 52.9407 22.246 58.5406C20.7765 64.0244 19.8335 68.9145 19.4168 73.211C19.1353 76.1141 19.1254 78.6332 19.3872 80.7685C19.6603 82.7876 20.2912 84.1381 21.28 84.8201C22.0478 85.3634 22.3979 85.9834 22.3304 86.6801C22.1952 88.0736 21.3729 88.6971 19.8633 88.5508C19.0504 88.4719 18.3294 88.0504 17.7002 87.2861C16.3596 85.3979 15.3638 82.3709 14.7128 78.2053C14.0618 74.0397 13.9953 69.2861 14.5133 63.9445C14.8286 60.6931 15.3874 57.3481 16.1898 53.9094C16.9921 50.4708 18.0323 46.9967 19.3103 43.487C21.0494 38.8498 23.3166 34.2053 26.112 29.5534C28.9186 24.7854 32.2665 20.4801 36.1555 16.6375C40.0558 12.6789 44.4523 9.64739 49.3449 7.54314C54.3537 5.45015 59.8191 4.69081 65.7414 5.26512C69.9217 5.67051 73.0662 7.08897 75.1747 9.5205C77.2944 11.8359 78.6442 14.8386 79.2241 18.5284C79.9201 22.2295 80.0542 26.2864 79.6263 30.6991C79.1195 35.9245 78.0677 41.3316 76.4708 46.9202C75.0013 52.404 73.3971 57.4644 71.658 62.1016C70.0464 66.6338 68.7627 70.2016 67.807 72.8048C67.3235 74.1645 66.3959 76.4775 65.0242 79.7436C63.7687 83.0211 62.3407 86.8679 60.7403 91.284C59.2673 95.5953 57.8992 100.034 56.6359 104.6C55.4887 109.177 54.7181 113.498 54.3239 117.562C53.9073 121.859 54.1912 125.579 55.1758 128.722C56.1716 131.749 58.284 133.536 61.5129 134.083L62.3838 134.168C66.5642 134.573 70.9078 133.295 75.4148 130.333C79.9217 127.371 84.3091 123.225 88.5767 117.895C92.9718 112.461 97.0861 106.296 100.92 99.4001C104.764 92.3885 108.103 85.152 110.937 77.6906C113.448 71.1357 115.345 64.8729 116.627 58.9021C117.909 52.9313 119.008 47.646 119.923 43.0462C120.849 38.3302 121.906 34.6819 123.094 32.1012C124.398 29.5317 126.217 28.3015 128.551 28.4106C129.015 28.4557 129.393 28.7854 129.685 29.3998C130.094 30.0254 130.298 30.3383 130.298 30.3383L130.472 30.3552C130.82 30.3889 131.05 31.642 131.162 34.1143C131.285 36.4706 131.311 39.2276 131.239 42.3854C131.167 45.5432 131.066 48.4051 130.934 50.971C130.93 53.4321 130.975 54.7844 131.068 55.0279C131.338 55.8746 131.558 57.83 131.73 60.8942C132.029 63.8535 132.337 67.9273 132.655 73.1155C132.998 79.2439 133.289 85.3087 133.528 91.3097C133.778 97.1946 133.981 102.958 134.137 108.599L134.867 108.318C136.583 107.547 138.149 107.113 139.565 107.016C140.981 106.919 142.153 106.915 143.082 107.005C144.011 107.095 144.813 107.29 145.487 107.59C146.277 107.901 146.686 108.527 146.712 109.467C146.667 109.932 146.343 110.252 145.739 110.428C145.252 110.615 144.719 110.68 144.138 110.624C142.501 110.582 140.72 110.82 138.794 111.337C136.985 111.864 135.524 112.426 134.411 113.021C134.421 120.172 133.981 128.335 133.091 137.508C132.495 143.663 131.377 150.353 129.739 157.578C128.205 164.931 126.039 172.164 123.239 179.277C120.555 186.402 117.121 192.808 112.936 198.498C108.866 204.198 103.986 208.589 98.2957 211.671C92.5938 214.869 85.9688 216.102 78.4209 215.37ZM79.5737 210.735C85.3798 211.298 90.3977 210.319 94.6273 207.799C98.9619 205.406 102.643 201.895 105.671 197.266C108.698 192.636 111.202 187.37 113.181 181.467C115.276 175.575 116.929 169.406 118.14 162.959C119.34 156.629 120.233 150.444 120.818 144.406C121.336 139.064 121.641 134.112 121.732 129.55C121.95 124.882 122.031 121.022 121.976 117.969C116.678 120.62 110.967 124.52 104.841 129.67C98.8317 134.831 93.0505 140.658 87.4977 147.153C82.0611 153.658 77.4785 160.422 73.7499 167.445C70.1261 174.596 67.9989 181.422 67.3683 187.925C67.0305 191.409 67.1684 194.821 67.7821 198.163C68.3958 201.504 69.6464 204.321 71.5339 206.614C73.4101 209.023 76.09 210.397 79.5737 210.735ZM160.536 151.246C156.588 150.864 153.438 149.503 151.086 147.165C148.85 144.839 147.199 141.924 146.132 138.421C145.181 134.93 144.607 131.182 144.409 127.177C144.339 123.068 144.489 119.097 144.861 115.265C145.142 112.362 145.518 109.703 145.986 107.287C146.466 104.755 146.854 102.565 147.151 100.719C148.204 95.8977 149.955 91.1445 152.402 86.4588C154.86 81.657 158.163 77.8162 162.31 74.9364C166.469 71.9405 171.683 70.7465 177.954 71.3546C182.366 71.7825 185.593 73.5606 187.634 76.6889C189.802 79.7123 191.131 83.5334 191.621 88.1523C192.122 92.655 192.131 97.403 191.647 102.396C191.511 103.79 191.318 105.177 191.067 106.56C190.932 107.953 190.739 109.341 190.487 110.723C193.075 114.256 196.401 116.22 200.465 116.614C203.601 116.918 206.791 116.055 210.035 114.025C210.788 113.512 211.455 113.284 212.035 113.34C212.5 113.385 212.704 113.698 212.648 114.279C212.546 115.324 212.188 115.992 211.574 116.284C209.547 117.846 207.449 118.932 205.28 119.542C203.111 120.152 200.982 120.356 198.891 120.153C195.292 119.804 192.084 118.438 189.267 116.055C188.821 118.239 188.27 120.296 187.614 122.225C187.085 124.049 186.579 125.641 186.096 127C184.702 130.499 182.757 134.237 180.261 138.215C177.893 142.087 175 145.323 171.584 147.922C168.283 150.533 164.6 151.641 160.536 151.246ZM167.213 142.224C169.652 142.46 171.797 141.496 173.647 139.331C175.615 137.178 177.325 134.648 178.779 131.741C180.233 128.835 181.294 126.359 181.961 124.314C182.467 122.722 182.937 120.892 183.372 118.824C183.807 116.757 184.223 114.277 184.621 111.385C183.131 109.834 181.979 107.202 181.167 103.49C180.482 99.6726 180.303 96.0802 180.63 92.7126C180.855 90.3902 181.342 88.3862 182.092 86.7007C182.853 84.899 183.842 83.7642 185.059 83.2962C184.532 81.4868 183.76 79.771 182.745 78.1488C181.742 76.4105 180.195 75.44 178.105 75.2373C176.131 75.0459 174.218 76.0326 172.367 78.1973C170.632 80.3734 169.027 83.0308 167.55 86.1696C166.074 89.3084 164.846 92.2956 163.868 95.1311C163.006 97.9778 162.461 99.9762 162.232 101.126C161.992 102.392 161.626 104.349 161.135 106.998C160.655 109.53 160.263 112.364 159.959 115.499C159.576 119.447 159.425 123.418 159.507 127.411C159.705 131.415 160.371 134.82 161.505 137.626C162.64 140.432 164.542 141.965 167.213 142.224ZM213.242 155.303C210.687 155.055 208.466 153.785 206.579 151.492C204.807 149.21 203.666 145.876 203.153 141.489C202.88 139.47 202.774 136.94 202.835 133.898C203.011 130.868 203.263 127.669 203.589 124.301C204.085 119.192 204.771 113.925 205.649 108.501C206.643 103.089 207.708 98.1516 208.843 93.6904C209.991 89.1131 211.147 85.6502 212.312 83.3017C213.028 81.9646 214.192 80.8467 215.802 79.9479C217.529 79.0605 219.67 78.7406 222.225 78.9884C223.967 79.1573 225.686 79.5585 227.383 80.1919C226.911 81.4354 225.921 84.387 224.414 89.0467C223.024 93.7176 221.699 98.9223 220.439 104.661C219.58 108.68 218.768 112.821 218.003 117.084C217.25 121.23 216.692 125.162 216.332 128.878C215.87 133.639 215.888 137.684 216.386 141.014C216.895 144.229 218.078 145.926 219.936 146.106C222.142 146.32 224.182 145.228 226.056 142.831C228.057 140.329 229.887 137.166 231.547 133.342C233.207 129.518 234.577 125.665 235.657 121.785C237.265 116.08 238.797 109.957 240.251 103.417C241.717 96.7611 243.204 91.1032 244.71 86.4435C245.194 85.0838 246.299 83.9603 248.026 83.0728C249.869 82.1967 252.068 81.8824 254.623 82.1302C256.365 82.2991 258.084 82.7002 259.781 83.3336C258.604 85.7982 257.304 89.5402 255.879 94.5595C254.571 99.59 253.328 105.154 252.151 111.252C250.973 117.351 250.092 123.419 249.506 129.457C249.213 132.476 249.008 135.797 248.892 139.419C248.891 143.053 249.231 146.192 249.912 148.837C250.71 151.493 252.037 152.911 253.895 153.091L254.07 153.108C254.999 153.198 256.031 152.829 257.166 152.002C258.417 151.185 259.805 149.562 261.33 147.131C262.417 145.595 263.416 143.758 264.326 141.62C265.237 139.481 266.223 137.173 267.283 134.698C267.849 133.698 268.364 133.22 268.829 133.265C269.409 133.321 269.632 134.046 269.497 135.44L269.429 136.136C268.904 139.133 267.759 142.48 265.994 146.177C264.229 149.874 261.934 152.992 259.109 155.531C256.4 158.081 253.304 159.188 249.821 158.85C245.872 158.467 242.872 156.769 240.82 153.757C238.779 150.629 237.433 146.982 236.782 142.816C236.143 138.535 235.892 134.467 236.032 130.612C234.926 133.552 233.704 136.481 232.366 139.399C231.029 142.317 229.492 144.864 227.757 147.04C222.958 153.021 218.119 155.776 213.242 155.303Z" fill="#68513F"/>
</svg>
