<svg width="65" height="73" viewBox="0 0 65 73" fill="none" xmlns="http://www.w3.org/2000/svg">
<path d="M64.4813 25.6102H43.0528V72.4102H35.9099V50.8102H28.7671V72.4102H21.6242V25.6102H0.195633V18.4102H64.4813V25.6102ZM32.3385 0.410156C34.2329 0.410156 36.0497 1.16873 37.3893 2.51899C38.7288 3.86925 39.4813 5.7006 39.4813 7.61016C39.4813 9.51971 38.7288 11.3511 37.3893 12.7013C36.0497 14.0516 34.2329 14.8102 32.3385 14.8102C30.4441 14.8102 28.6273 14.0516 27.2877 12.7013C25.9482 11.3511 25.1956 9.51971 25.1956 7.61016C25.1956 3.61416 28.3742 0.410156 32.3385 0.410156Z" fill="#EC5863"/>
</svg>
