<svg width="68" height="73" viewBox="0 0 68 73" fill="none" xmlns="http://www.w3.org/2000/svg">
<path d="M33.7249 0.638428C27.8873 0.638428 24.3931 1.52458 22.172 2.6295C21.0601 3.18335 20.2706 3.76489 19.7397 4.36027C19.2059 4.95566 18.8696 5.83074 18.8696 5.83074C18.7824 6.05314 18.7245 6.28584 18.6972 6.52304L17.2184 25.4757C17.1989 25.592 17.2378 25.7803 17.2184 25.9077L17.046 27.8129C17.0298 27.9851 17.0298 28.1585 17.046 28.3307C17.046 37.4692 24.5515 44.9461 33.7249 44.9461C42.8983 44.9461 50.4038 37.4692 50.4038 28.3307V27.8987C50.4043 27.8701 50.4043 27.8415 50.4038 27.8129L48.7526 6.52304C48.7254 6.28584 48.6674 6.05314 48.5803 5.83074C48.5803 5.83074 48.2439 4.95566 47.7102 4.36027C47.1792 3.76212 46.3898 3.18058 45.2778 2.6295C43.0568 1.52181 39.5625 0.638428 33.7249 0.638428ZM33.7249 44.9461C15.3781 44.9461 0.367126 53.5474 0.367126 61.3012V72.6384H67.0827V61.3012C67.0827 53.935 53.5117 45.8212 36.4186 45.032C35.5219 44.973 34.6235 44.9444 33.7249 44.9461ZM33.7249 6.17689C39.0066 6.17689 41.6446 7.00766 42.7593 7.5615C43.1318 7.74704 43.1763 7.81904 43.2819 7.90766L44.4105 22.1C41.8531 22.255 38.3672 22.7923 33.7249 22.7923C29.0826 22.7923 25.5995 22.255 23.0393 22.1L24.1679 7.90766C24.2708 7.81904 24.318 7.74704 24.6905 7.5615C25.8052 7.00766 28.4433 6.17689 33.7249 6.17689ZM31.4649 8.94612V12.236H28.1653V16.736H31.4677V20.023H35.9821V16.7332H39.2846V12.236H35.9821V8.94612H31.4677H31.4649ZM25.3855 51.1769L32.5101 67.1H5.92676V61.3012C5.92676 59.2381 13.0153 53.1957 25.3855 51.1769ZM42.0644 51.1769C54.4346 53.1984 61.5231 59.2381 61.5231 61.3012V67.1H34.9397L42.0644 51.1769Z" fill="#EC5863"/>
</svg>
