<svg width="88" height="73" viewBox="0 0 88 73" fill="none" xmlns="http://www.w3.org/2000/svg">
<path d="M24.5815 0.967773C18.2049 0.967773 12.0895 3.4698 7.58063 7.92344C3.07172 12.3771 0.538635 18.4175 0.538635 24.7159C0.538635 26.8748 0.932064 29.0337 1.50035 31.1927H19.3358L24.8875 16.6415C26.1989 13.1873 31.3572 12.8418 33.0183 16.6415L42.0672 39.8283L44.6464 33.697C45.2146 32.2721 46.7446 31.1927 48.6243 31.1927H87.0055C87.5738 29.0337 87.9672 26.8748 87.9672 24.7159C87.9672 18.4175 85.4341 12.3771 80.9252 7.92344C76.4163 3.4698 70.3009 0.967773 63.9243 0.967773C55.7935 0.967773 48.6243 4.98337 44.2529 11.0715C39.8815 4.98337 32.7123 0.967773 24.5815 0.967773ZM4.91006 37.6694C3.75069 37.6694 2.6388 38.1243 1.819 38.9341C0.999195 39.7438 0.538635 40.8421 0.538635 41.9873C0.538635 43.1324 0.999195 44.2307 1.819 45.0404C2.6388 45.8502 3.75069 46.3051 4.91006 46.3051H15.5763L39.8815 70.0532C44.2529 73.9393 44.2529 73.9393 48.6243 70.0532L72.9295 46.3051H83.5958C84.7551 46.3051 85.867 45.8502 86.6868 45.0404C87.5066 44.2307 87.9672 43.1324 87.9672 41.9873C87.9672 40.8421 87.5066 39.7438 86.6868 38.9341C85.867 38.1243 84.7551 37.6694 83.5958 37.6694H50.3729L46.3075 47.6005C44.5589 51.9615 39.5318 51.357 37.9143 47.73L28.9529 24.7159L24.7563 34.7765C24.1006 36.4172 22.6143 37.6694 20.6472 37.6694H4.91006Z" fill="#EC5863"/>
</svg>
